<?xml version="1.0" encoding="iso-8859-1"?>
<!-- Uploaded to: SVG Repo, www.svgrepo.com, Generator: SVG Repo Mixer Tools -->
<svg version="1.1" id="Layer_1" xmlns="http://www.w3.org/2000/svg" xmlns:xlink="http://www.w3.org/1999/xlink" 
	 viewBox="0 0 512.005 512.005" xml:space="preserve">
<circle style="fill:#D7F3FF;" cx="256.002" cy="256.002" r="256.002"/>
<g>
	<path style="fill:#9AD14B;" d="M443.498,387.804c-2.561,3.534,13.657,17.323,14.47,19.589
		c-8.645,2.808-30.073,31.296-26.637,35.114c-24.642,23.201-53.89,41.551-86.229,53.558L302.8,436.234l8.534-48.43h62.104h31.994
		H443.498z"/>
	<path style="fill:#9AD14B;" d="M200.673,387.804l8.534,54.071l-42.302,54.189c-32.339-12.007-61.587-30.356-86.241-53.545
		c3.424-3.818-11.425-33.139-20.057-35.947c-13.981-6.806,10.464-15.234,7.902-18.768h38.028h31.994H200.673z"/>
</g>
<g>
	
		<rect x="196.18" y="89.796" transform="matrix(-0.5591 -0.8291 0.8291 -0.5591 203.3233 374.0059)" style="fill:#999999;" width="9.852" height="86.291"/>
	<path style="fill:#999999;" d="M152.537,251.607l-6.008-54.464c-0.02-0.18-0.03-0.36-0.03-0.539v-4.926l9.852-0.012v4.667
		l5.978,54.194L152.537,251.607z"/>
	
		<rect x="165.255" y="306.573" transform="matrix(-0.7894 -0.6139 0.6139 -0.7894 184.6361 686.3419)" style="fill:#999999;" width="89.592" height="9.852"/>
	
		<rect x="201.623" y="214.939" transform="matrix(-0.4385 -0.8987 0.8987 -0.4385 73.6153 543.3796)" style="fill:#999999;" width="9.852" height="67.51"/>
	<rect x="250.682" y="120.009" style="fill:#999999;" width="9.852" height="82.572"/>
	
		<rect x="267.712" y="128.033" transform="matrix(-0.8291 -0.5591 0.5591 -0.8291 494.2516 416.9962)" style="fill:#999999;" width="86.291" height="9.852"/>
	<path style="fill:#999999;" d="M359.435,251.606l-9.792-1.078l5.964-54.195v-4.656l9.852-0.012v4.938c0,0.18-0.01,0.36-0.03,0.539
		L359.435,251.606z"/>
	
		<rect x="296.988" y="266.707" transform="matrix(-0.6139 -0.7894 0.7894 -0.6139 241.359 741.0607)" style="fill:#999999;" width="9.852" height="89.592"/>
	
		<rect x="271.657" y="243.768" transform="matrix(-0.8987 -0.4385 0.4385 -0.8987 470.8389 606.1279)" style="fill:#999999;" width="67.51" height="9.852"/>
	
		<rect x="165.545" y="188.169" transform="matrix(-0.8977 -0.4407 0.4407 -0.8977 302.6833 456.4808)" style="fill:#999999;" width="77.599" height="9.852"/>
	
		<rect x="302.357" y="153.999" transform="matrix(-0.4374 -0.8993 0.8993 -0.4374 268.0121 553.9266)" style="fill:#999999;" width="9.852" height="78.251"/>
</g>
<path style="fill:#90BC42;" d="M311.335,387.804l33.768,108.26C317.357,506.372,287.333,512,256.004,512
	s-61.353-5.628-89.098-15.935l33.768-108.26h35.812l-2.204,18.768h42.647l-2.204-18.768H311.335z"/>
<g>
	<path style="fill:#FFFFFF;" d="M455.715,179.978c8.497,0,15.394,6.896,15.394,15.394s-6.896,15.394-15.394,15.394
		c-4.963,0-18.571,0-23.189,0c-7.253,0-13.14-5.887-13.14-13.14c0-7.253,5.887-13.14,13.14-13.14c3.707,0,7.044,1.539,9.433,4.002
		C444.483,183.45,449.693,179.978,455.715,179.978z"/>
	<path style="fill:#FFFFFF;" d="M149.677,84.328c7.253,0,13.14,5.887,13.14,13.14c0,7.253-5.887,13.14-13.14,13.14
		c-4.618,0-18.226,0-23.189,0c-8.497,0-15.394-6.896-15.394-15.394s6.896-15.394,15.394-15.394c6.022,0,11.231,3.473,13.756,8.51
		C142.633,85.867,145.97,84.328,149.677,84.328z"/>
</g>
<g>
	<path style="fill:#F2F2F2;" d="M360.533,196.603c-10.677-1.034-19.482-8.485-22.499-18.448c-0.739-2.401-1.133-4.963-1.133-7.611
		c0-6.133,2.106-11.773,5.653-16.231c4.791-6.059,12.204-9.95,20.529-9.95c14.458,0,26.182,11.724,26.182,26.182
		s-11.724,26.182-26.182,26.182C362.22,196.726,361.37,196.689,360.533,196.603z"/>
	<path style="fill:#F2F2F2;" d="M281.779,98.748c0,4.532-1.145,8.781-3.165,12.5c-4.446,8.152-13.078,13.682-23.004,13.682
		c-9.79,0-18.325-5.382-22.82-13.349c-2.143-3.793-3.362-8.165-3.362-12.832c0-14.458,11.724-26.182,26.182-26.182
		C270.067,72.567,281.779,84.291,281.779,98.748z"/>
	<path style="fill:#F2F2F2;" d="M151.425,196.603c-0.837,0.086-1.675,0.123-2.537,0.123c-14.458,0-26.182-11.724-26.182-26.182
		c0-14.458,11.724-26.182,26.182-26.182c8.325,0,15.738,3.892,20.529,9.95c3.547,4.458,5.653,10.098,5.653,16.231
		c0,2.648-0.394,5.209-1.133,7.611C170.92,188.118,162.115,195.568,151.425,196.603z"/>
</g>
<g>
	<path style="fill:#CCCCCC;" d="M139.128,170.544c0-11.591,7.543-21.408,17.981-24.852c-2.586-0.856-5.346-1.33-8.219-1.33
		c-14.458,0-26.182,11.724-26.182,26.182s11.724,26.182,26.182,26.182c0.862,0,1.699-0.037,2.537-0.123
		c1.969-0.191,3.873-0.602,5.689-1.203C146.673,191.958,139.128,182.138,139.128,170.544z"/>
	<path style="fill:#CCCCCC;" d="M245.332,99.521c0-11.591,7.543-21.408,17.981-24.852c-2.586-0.856-5.346-1.33-8.219-1.33
		c-14.458,0-26.182,11.724-26.182,26.182s11.724,26.182,26.182,26.182c0.862,0,1.699-0.037,2.537-0.123
		c1.969-0.191,3.873-0.602,5.689-1.203C252.878,120.934,245.332,111.114,245.332,99.521z"/>
</g>
<path style="fill:#808080;" d="M160.378,298.287l-21.847,89.517h-31.994l37.474-92.67c4.852-3.501,4.483-11.096,9.162-11.096
	C154.356,284.039,159.245,298.447,160.378,298.287z"/>
<path style="fill:#CCCCCC;" d="M352.881,170.544c0-11.591,7.543-21.408,17.981-24.852c-2.586-0.856-5.346-1.33-8.219-1.33
	c-14.458,0-26.182,11.724-26.182,26.182s11.724,26.182,26.182,26.182c0.862,0,1.699-0.037,2.537-0.123
	c1.969-0.191,3.873-0.602,5.689-1.203C360.428,191.958,352.881,182.138,352.881,170.544z"/>
<g>
	<path style="fill:#F2F2F2;" d="M180.636,261.342c1.564,3.35,2.426,7.081,2.426,11.01c0,5.443-1.663,10.48-4.495,14.667
		c-4.089,6.034-10.628,10.271-18.189,11.268c-1.133,0.16-2.303,0.234-3.485,0.234c-4.68,0-9.076-1.232-12.881-3.387
		c-7.943-4.495-13.3-13.005-13.3-22.783c0-14.458,11.724-26.181,26.182-26.181C167.423,246.17,176.486,252.389,180.636,261.342z"/>
	<path style="fill:#F2F2F2;" d="M281.779,223.819c0,4.421-1.096,8.583-3.017,12.241h-0.012c-4.384-8.3-13.103-0.665-23.14-0.665
		c-10.037,0-18.768-7.635-23.152,0.665c-1.933-3.658-3.029-7.82-3.029-12.241c0-5.936,1.983-11.416,5.32-15.812
		c4.778-6.293,12.34-10.357,20.861-10.357c8.547,0,16.133,4.089,20.911,10.418C279.821,212.452,281.779,217.908,281.779,223.819z"/>
</g>
<path style="fill:#808080;" d="M274.722,387.804l2.204,18.768H234.28l2.204-18.768l6.084-51.71l7.278-61.969l2.463-5.274
	c1.367,0.234,1.65,2.053,3.079,2.053c1.429,0,2.943,1.26,4.31,1.026l1.675,2.196l7.29,62.055L274.722,387.804z"/>
<path style="fill:#CCCCCC;" d="M245.849,223.831c0-11.591,7.543-21.408,17.981-24.852c-2.586-0.856-5.346-1.33-8.219-1.33
	c-14.458,0-26.182,11.724-26.182,26.182c0,14.458,11.724,26.182,26.182,26.182c0.862,0,1.699-0.037,2.537-0.123
	c1.969-0.191,3.873-0.602,5.689-1.203C253.394,245.244,245.849,235.424,245.849,223.831z"/>
<path style="fill:#808080;" d="M367.959,295.134l37.474,92.67h-31.994l-21.859-89.517c1.145,0.16,5.045-7.475,6.228-7.475
	C362.487,290.812,364.153,297.289,367.959,295.134z"/>
<g>
	<path style="fill:#F2F2F2;" d="M232.458,236.06c4.384-8.3,13.115-13.953,23.152-13.953c10.037,0,18.756,5.653,23.14,13.953
		c0.062,0.099,0.111,0.197,0.16,0.308c1.835,3.571,2.869,7.623,2.869,11.921c0,13.029-9.507,23.842-21.97,25.837h-8.399
		c-12.463-1.995-21.982-12.807-21.982-25.837C229.428,243.867,230.524,239.705,232.458,236.06z"/>
	<path style="fill:#F2F2F2;" d="M355.077,246.17c14.458,0,26.182,11.724,26.182,26.182c0,9.778-5.357,18.3-13.3,22.783
		c-3.805,2.155-8.202,3.387-12.881,3.387c-1.182,0-2.352-0.074-3.497-0.234c-7.561-1.01-14.088-5.234-18.177-11.268
		c-2.832-4.187-4.495-9.224-4.495-14.667c0-3.928,0.862-7.66,2.426-11.01C335.484,252.389,344.548,246.17,355.077,246.17z"/>
</g>
<g>
	<path style="fill:#CCCCCC;" d="M345.329,272.339c0-11.591,7.543-21.408,17.981-24.851c-2.586-0.856-5.346-1.33-8.219-1.33
		c-14.458,0-26.182,11.724-26.182,26.181c0,14.458,11.724,26.182,26.182,26.182c0.862,0,1.699-0.037,2.537-0.123
		c1.969-0.191,3.873-0.602,5.689-1.203C352.874,293.753,345.329,283.933,345.329,272.339z"/>
	<path style="fill:#CCCCCC;" d="M245.849,247.944c0-11.591,7.543-21.408,17.981-24.852c-2.586-0.856-5.346-1.33-8.219-1.33
		c-14.458,0-26.182,11.724-26.182,26.182c0,14.458,11.724,26.182,26.182,26.182c0.862,0,1.699-0.037,2.537-0.123
		c1.969-0.191,3.873-0.602,5.689-1.203C253.394,269.357,245.849,259.537,245.849,247.944z"/>
	<path style="fill:#CCCCCC;" d="M147.132,272.339c0-11.591,7.543-21.408,17.981-24.851c-2.586-0.856-5.346-1.33-8.219-1.33
		c-14.458,0-26.182,11.724-26.182,26.181c0,14.458,11.724,26.182,26.182,26.182c0.862,0,1.699-0.037,2.537-0.123
		c1.969-0.191,3.873-0.602,5.689-1.203C154.678,293.753,147.132,283.933,147.132,272.339z"/>
</g>
<g>
	<path style="fill:#90BC42;" d="M86.181,428.123c0,5.529-2.094,10.579-5.517,14.396c-31.883-29.975-56.082-68.04-69.308-110.92
		c3.818-6.01,10.529-10,18.177-10c11.909,0,21.551,9.655,21.551,21.551c0,3.029-0.628,5.911-1.761,8.522
		c7.549,4.47,12.635,12.684,12.635,22.093c0,2.598-0.394,5.098-1.108,7.463c3.054,1.564,5.677,3.818,7.66,6.576
		c2.562,3.534,4.064,7.882,4.064,12.586c0,2.549-0.468,4.975-1.268,7.241C79.937,410.439,86.181,418.554,86.181,428.123z"/>
	<path style="fill:#90BC42;" d="M482.463,321.599c7.648,0,14.359,3.978,18.177,9.987c-13.214,42.881-37.413,80.946-69.308,110.92
		c-3.436-3.818-5.517-8.854-5.517-14.384c0-9.569,6.244-17.684,14.889-20.492c-0.813-2.266-1.281-4.692-1.281-7.241
		c0-4.704,1.515-9.051,4.076-12.586c1.983-2.759,4.606-5.012,7.66-6.576c-0.714-2.365-1.108-4.864-1.108-7.463
		c0-9.409,5.074-17.623,12.623-22.093c-1.133-2.611-1.761-5.492-1.761-8.522C460.912,331.254,470.566,321.599,482.463,321.599z"/>
</g>
</svg>