<svg xmlns="http://www.w3.org/2000/svg" width="143" height="43" viewBox="0 0 143 43"><path fill="#F7A800" d="M39.591 31.448h-9.27c.282 1.556 1.587 2.366 3.253 2.366a4.296 4.296 0 0 0 3.173-1.475l2.505 2.562c-1.14 1.414-3.035 2.45-6.124 2.45-4.12 0-7.127-2.84-7.127-7.073 0-4.12 2.895-7.044 7.016-7.044 3.841 0 6.648 2.869 6.648 6.904.01.392-.047 1.031-.074 1.31m-9.242-2.593h5.092c-.283-1.336-1.168-2.171-2.477-2.171-1.335.004-2.338.812-2.615 2.171m13.139 1.23-4.51-6.598h4.9l2.005 3.368h.026l2.061-3.368h4.872l-4.51 6.626 4.599 6.986h-4.682l-2.311-3.395h-.029L43.571 37.1h-4.676zm8.324.25c0-4.26 2.896-7.1 7.238-7.1 2.088 0 4.37.67 5.874 2.367l-2.812 2.784a3.446 3.446 0 0 0-2.7-1.28c-1.893 0-3.2 1.28-3.2 3.2 0 1.921 1.334 3.175 3.225 3.175 1.225 0 2.122-.446 2.895-1.273l2.673 2.783c-1.225 1.415-3.23 2.367-6.07 2.367-4.116-.007-7.123-2.845-7.123-7.023M65.9 16.61h4.342v8.408l.055.028c1.058-1.198 2.534-1.81 4.204-1.81 2.812 0 4.9 1.365 4.9 5.657v8.204h-4.342v-7.124c0-2.2-.753-2.867-2.283-2.867-1.53 0-2.534 1.002-2.534 3.111v6.876H65.9zM80.4 30.307c0-4.176 2.7-7.073 6.209-7.073a4.871 4.871 0 0 1 3.758 1.698l.055-.029V23.49h4.376V37.1h-4.153v-1.414l-.055-.029c-.89 1.142-2.121 1.698-3.758 1.698-3.731-.004-6.432-2.842-6.432-7.048m10.217 0c0-1.865-1.252-3.23-2.867-3.23-1.67 0-2.922 1.282-2.922 3.23 0 1.92 1.196 3.202 2.922 3.202 1.559 0 2.867-1.259 2.867-3.202m5.986-6.82h4.343v1.586h.055a5.279 5.279 0 0 1 4.092-1.839c2.812 0 4.871 1.392 4.871 5.708v8.155h-4.342v-7.096c0-2.255-.751-2.895-2.171-2.895-1.504 0-2.505 1.03-2.505 3.145V37.1h-4.343zm15.784 18.066.975-3.536c1.14.667 2.644 1.196 4.147 1.196 2.367 0 3.563-1.168 3.563-2.588v-1.253l-.055-.027c-.92.946-2.171 1.502-3.758 1.502-3.678 0-6.292-2.839-6.292-6.709 0-4.035 2.617-6.904 6.041-6.904a5.357 5.357 0 0 1 3.897 1.587h.061v-1.335h4.37v11.83c0 4.426-1.838 7.544-7.354 7.544-2.199-.001-3.924-.388-5.595-1.307m8.77-11.524c0-1.727-1.252-2.923-2.867-2.923-1.67 0-2.896 1.196-2.896 2.95 0 1.754 1.254 2.924 2.896 2.924s2.866-1.225 2.866-2.95zm18.873 1.419h-9.27c.283 1.556 1.587 2.366 3.253 2.366a4.296 4.296 0 0 0 3.173-1.475l2.506 2.562c-1.141 1.414-3.034 2.45-6.124 2.45-4.12 0-7.126-2.84-7.126-7.073 0-4.12 2.894-7.044 7.014-7.044 3.842 0 6.648 2.869 6.648 6.904.01.392-.042 1.031-.074 1.31m-9.242-2.593h5.092c-.283-1.336-1.168-2.171-2.476-2.171-1.336.004-2.337.812-2.616 2.171M21.7 16.231c-1.366 0-2.356-1.096-2.356-2.533 0-1.477.969-2.535 2.356-2.535 1.346 0 2.336 1.035 2.336 2.535 0 1.475-1.036 2.533-2.336 2.533m41.485-1.393h-9.263c.283 1.556 1.587 2.366 3.253 2.366a4.286 4.286 0 0 0 3.173-1.475l2.506 2.562c-1.141 1.414-3.035 2.45-6.124 2.45-4.12 0-7.128-2.84-7.128-7.073 0-4.12 2.896-7.044 7.016-7.044 3.842 0 6.648 2.869 6.648 6.904.003.392-.052 1.033-.08 1.31m-9.243-2.589h5.092c-.283-1.336-1.168-2.17-2.477-2.17-1.334 0-2.336.812-2.615 2.17M3 0h4.342v8.408l.057.028c1.058-1.198 2.533-1.81 4.204-1.81 2.812 0 4.9 1.364 4.9 5.657v8.213h-4.344v-7.133c0-2.2-.751-2.868-2.283-2.868s-2.534 1.003-2.534 3.112v6.877H3zm40.697 6.625c2.869 0 4.817 1.644 4.826 5.931v7.933h-4.342v-6.931c0-1.79-.477-3.063-1.98-3.063-1.252 0-2.283 1.03-2.283 3.174v6.82h-4.346v-6.931c0-1.79-.533-3.063-1.98-3.063-1.365 0-2.366 1.03-2.366 3.174v6.815h-4.344v-1.612c1.364-1.243 2.17-3.024 2.17-5.18 0-2.156-.806-3.959-2.17-5.205V6.876h4.344V8.49h.027c1.058-1.225 2.427-1.866 3.841-1.866 1.727 0 3.148.619 3.954 2.033h.056c1.085-1.364 2.7-2.033 4.593-2.033"/></svg>